<?xml version="1.0" encoding="UTF-8" standalone="no"?>
<!-- Created with Inkscape (http://www.inkscape.org/) -->

<svg
   width="1200mm"
   height="628mm"
   viewBox="0 0 1200 628"
   version="1.1"
   id="svg1"
   inkscape:version="1.4.3 (0d15f75, 2025-12-25)"
   sodipodi:docname="a-comprehrensive-guide-to-authentication-in-web-apps.svg"
   xml:space="preserve"
   xmlns:inkscape="http://www.inkscape.org/namespaces/inkscape"
   xmlns:sodipodi="http://sodipodi.sourceforge.net/DTD/sodipodi-0.dtd"
   xmlns="http://www.w3.org/2000/svg"
   xmlns:svg="http://www.w3.org/2000/svg"
   xmlns:rdf="http://www.w3.org/1999/02/22-rdf-syntax-ns#"
   xmlns:cc="http://creativecommons.org/ns#"
   xmlns:dc="http://purl.org/dc/elements/1.1/"><title
     id="title8">A Comprehrensive Guide to Authentication in Web Applications (2026)</title><sodipodi:namedview
     id="namedview1"
     pagecolor="#ffffff"
     bordercolor="#000000"
     borderopacity="1"
     inkscape:showpageshadow="false"
     inkscape:pageopacity="0"
     inkscape:pagecheckerboard="false"
     inkscape:deskcolor="#585858"
     inkscape:document-units="px"
     showborder="true"
     borderlayer="false"
     labelstyle="below"
     inkscape:clip-to-page="false"
     showgrid="true"
     showguides="true"
     inkscape:zoom="0.24708649"
     inkscape:cx="1351.7534"
     inkscape:cy="1497.4514"
     inkscape:window-width="1920"
     inkscape:window-height="1009"
     inkscape:window-x="-8"
     inkscape:window-y="-4"
     inkscape:window-maximized="1"
     inkscape:current-layer="g14"
     inkscape:lockguides="false"><inkscape:page
       x="0"
       y="0"
       width="1200"
       height="628"
       id="page6"
       margin="0"
       bleed="0" /><inkscape:grid
       id="grid1"
       units="px"
       originx="0"
       originy="0"
       spacingx="0.26458333"
       spacingy="0.26458334"
       empcolor="#0099e5"
       empopacity="0.30196078"
       color="#e50043"
       opacity="0.14901961"
       empspacing="5"
       enabled="false"
       visible="true"
       dotted="true"
       snapvisiblegridlinesonly="true" /></sodipodi:namedview><defs
     id="defs1"><marker
       style="overflow:visible"
       id="ArrowWideRounded"
       refX="0"
       refY="0"
       orient="auto-start-reverse"
       inkscape:stockid="Wide, rounded arrow"
       markerWidth="1"
       markerHeight="1"
       viewBox="0 0 1 1"
       inkscape:isstock="true"
       inkscape:collect="always"
       preserveAspectRatio="xMidYMid"><path
         style="fill:none;stroke:context-stroke;stroke-width:1;stroke-linecap:round"
         d="M 3,-3 0,0 3,3"
         transform="rotate(180,0.125,0)"
         sodipodi:nodetypes="ccc"
         id="path2" /></marker><linearGradient
       id="swatch19"
       inkscape:swatch="solid"><stop
         style="stop-color:#000000;stop-opacity:1;"
         offset="0"
         id="stop19" /></linearGradient><linearGradient
       id="swatch13"
       inkscape:swatch="solid"><stop
         style="stop-color:#ff0000;stop-opacity:1;"
         offset="0"
         id="stop13" /></linearGradient><clipPath
       clipPathUnits="userSpaceOnUse"
       id="clipPath21"><path
         id="path22"
         style="fill:#ff0000;fill-opacity:1;fill-rule:nonzero;stroke:none;stroke-width:0.608004"
         d="m 5374.3301,1472.2793 v 4.256 h 933.9315 c -0.6318,-1.4104 -1.2286,-2.8294 -1.7896,-4.256 z m 1863.9499,3.1885 c -0.1423,0.01 -0.2845,0.01 -0.4274,0.014 -0.6445,0.3319 -1.2866,0.664 -1.9286,0.9952 0.7855,-0.3368 1.5711,-0.6734 2.356,-1.0095 z" /></clipPath><clipPath
       clipPathUnits="userSpaceOnUse"
       id="clipPath24"><path
         id="path24"
         style="fill:#ff0000;fill-opacity:1;fill-rule:nonzero;stroke:none;stroke-width:0.608004"
         d="M 5405.5094,748.60572 V 1118.3317 H 5999.95 V 748.60572 Z m 221.2613,12.76335 c 20.9234,-0.54617 42.7624,5.23722 66.6417,20.52367 37.5726,24.05259 52.9859,52.50932 58.0205,85.82364 195.6944,61.48645 141.7714,276.43622 -84.4567,233.20412 -37.6052,-7.1863 -74.7789,-16.9626 -107.029,-38.5869 -21.5892,-17.7178 -29.9253,-21.7852 -45.3557,-47.1525 -1.7977,-2.9554 -3.4653,-5.9411 -5.0066,-8.9549 -22.3277,10.2903 -37.0979,-3.2054 -37.0122,-64.09459 0.014,-10.4401 -1.1551,-20.94836 0.044,-31.31939 2.4104,-20.84549 8.8814,-38.02928 18.6131,-56.31756 9.2279,-17.3412 21.7578,-32.09509 34.5541,-46.78071 7.4757,-6.53112 13.7896,-14.69899 22.4261,-19.59269 26.2694,-14.88486 51.6589,-26.05001 78.5608,-26.75219 z m 63.4758,82.95337 c -34.8992,-0.92088 -96.4375,86.36191 -145.199,134.34878 5.9688,5.05446 12.8581,9.93223 20.8063,14.65861 52.9593,31.49227 88.1177,17.18167 130.7613,-7.83279 4.212,-2.47081 7.1485,-6.61059 10.4893,-10.21971 0.031,-0.15862 0.072,-0.34546 0.1259,-0.5641 0.4782,-1.94349 1.8786,-3.54296 2.6291,-5.39841 1.6507,-4.0808 3.484,-8.12495 4.5672,-12.39162 5.5053,-21.6866 3.7861,-22.01212 3.1861,-45.4198 h -0.01 c -0.4479,-17.47071 -2.0864,-31.03777 -4.7418,-41.25881 -2.7377,-2.66312 -5.8563,-5.44529 -9.7803,-9.13551 -6.1907,-5.11356 -12.8575,-7.23009 -2.717,-5.21437 7.0168,1.39482 4.943,1.02394 7.815,1.5402 -4.5957,-8.92982 -10.6917,-12.92131 -17.9349,-13.11247 z m 47.2902,119.75904 c -0.08,0.21359 -0.1594,0.427 -0.2375,0.64126 -0.2133,0.58424 -0.4042,1.17777 -0.5581,1.78006 -0.017,0.0861 -0.011,0.31622 0.01,0.35155 v 0 0 0 0 0 0 0 0 0 0 c 0,-0.006 0.01,-0.0103 0.01,-0.0188 0.2629,-0.91724 0.5198,-1.83617 0.773,-2.75621 z m -28.4016,8.37909 c -0.1113,0.23755 -0.3851,0.81521 -0.6995,1.4369 0.028,-0.0274 0.055,-0.0547 0.083,-0.082 0.3383,-0.74906 0.5314,-1.17041 0.6164,-1.35494 z" /></clipPath></defs><g
     inkscape:label="Background"
     id="layer1"
     style="display:inline"
     sodipodi:insensitive="true"><rect
       style="fill:#99d9d9;fill-opacity:1;stroke-width:0.264583"
       id="rect8"
       width="1200"
       height="628"
       x="1.4194562e-05"
       y="-1.8583069e-05" /><path
       style="vector-effect:non-scaling-stroke;fill:#99d9d9;fill-opacity:1;stroke:#000000;stroke-width:0.323444;stroke-dasharray:none;stroke-dashoffset:0;stroke-opacity:1;-inkscape-stroke:hairline"
       d="M 1.4194562e-5,313.99999 H 1200"
       id="path19" /><path
       style="display:inline;vector-effect:non-scaling-stroke;fill:#99d9d9;fill-opacity:1;stroke:#000000;stroke-width:0.233985;stroke-dasharray:none;stroke-dashoffset:0;stroke-opacity:1;-inkscape-stroke:hairline"
       d="m 1098.1884,-5e-6 -3.312,627.999985"
       id="path19-1" /><path
       style="display:inline;vector-effect:non-scaling-stroke;fill:#99d9d9;fill-opacity:1;stroke:#000000;stroke-width:0.233985;stroke-dasharray:none;stroke-dashoffset:0;stroke-opacity:1;-inkscape-stroke:hairline"
       d="m 105.1766,0 -3.312,627.99999"
       id="path19-1-2" /></g><g
     id="g5"
     style="display:inline"
     inkscape:label="Window"
     sodipodi:insensitive="true"><g
       id="g4"
       style="stroke-width:1.85208;stroke-dasharray:none"
       inkscape:label="Window"><rect
         style="fill:#efa593;fill-opacity:1;stroke:#000000;stroke-width:1.85208;stroke-dasharray:none"
         id="rect1"
         width="922.14154"
         height="359.94913"
         x="138.80545"
         y="134.02542"
         ry="8.4489346"
         inkscape:label="Window" /><g
         id="g13"
         style="display:inline;stroke-width:1.85208;stroke-dasharray:none"
         inkscape:label="Window Icons"
         transform="translate(-237.13594,541.03504)"><circle
           style="fill:#febc2e;fill-opacity:1;stroke:#000000;stroke-width:1.85208;stroke-dasharray:none"
           id="path1"
           cx="425.9649"
           cy="-384.69608"
           r="7.7316308" /><circle
           style="fill:#28c840;fill-opacity:1;stroke:#000000;stroke-width:1.85208;stroke-dasharray:none"
           id="path1-8"
           cx="452.84949"
           cy="-384.69608"
           r="7.7316308" /><circle
           style="fill:#ff5f57;fill-opacity:1;stroke:#000000;stroke-width:1.85208;stroke-dasharray:none"
           id="path1-8-1"
           cx="399.08032"
           cy="-384.69608"
           r="7.7316308" /></g><path
         id="rect4"
         style="fill:#ffedd1;stroke:#000000;stroke-width:1.85208;stroke-linejoin:bevel;stroke-dasharray:none"
         d="m 138.80545,181.73371 922.14155,1.61639 v 0.14901 300.25863 c 0,5.66011 -4.5567,10.21681 -10.2168,10.21681 H 149.02226 c -5.66011,0 -10.21681,-4.5567 -10.21681,-10.21681 z"
         sodipodi:nodetypes="cccsssscc" /></g><rect
       style="fill:#ffedd1;fill-opacity:1;stroke:#000000;stroke-width:1.84728;stroke-linecap:butt;stroke-linejoin:bevel;stroke-dasharray:none;paint-order:normal"
       id="rect5"
       width="895.78943"
       height="238.79626"
       x="151.30067"
       y="240.12068"
       ry="8.4567337" /></g><metadata
     id="metadata2"><rdf:RDF><cc:Work
         rdf:about=""><cc:license
           rdf:resource="http://creativecommons.org/licenses/by-sa/4.0/" /><dc:title>A Comprehrensive Guide to Authentication in Web Applications (2026)</dc:title><dc:date>29-04-2026</dc:date><dc:creator><cc:Agent><dc:title>Somraj Saha</dc:title></cc:Agent></dc:creator><dc:language>English</dc:language><dc:description>Comprehensive guide to authentication in web applications, from Basic and Digest Auth to sessions and JWTs. Learn how these mechanisms work, their security trade-offs, and how to apply them effectively in modern, scalable system architectures.</dc:description></cc:Work><cc:License
         rdf:about="http://creativecommons.org/licenses/by-sa/4.0/"><cc:permits
           rdf:resource="http://creativecommons.org/ns#Reproduction" /><cc:permits
           rdf:resource="http://creativecommons.org/ns#Distribution" /><cc:requires
           rdf:resource="http://creativecommons.org/ns#Notice" /><cc:requires
           rdf:resource="http://creativecommons.org/ns#Attribution" /><cc:permits
           rdf:resource="http://creativecommons.org/ns#DerivativeWorks" /><cc:requires
           rdf:resource="http://creativecommons.org/ns#ShareAlike" /></cc:License></rdf:RDF></metadata><g
     id="g14"
     style="display:inline"
     inkscape:label="Navigation Panel"
     transform="matrix(0.43516686,0,0,0.43516686,-487.90871,-59.819379)"><g
       id="g3"
       transform="matrix(0.86963351,0,0,0.86963351,333.25606,489.39782)"
       style="stroke-width:4.89405;stroke-dasharray:none"
       inkscape:label="Address Bar"><text
         xml:space="preserve"
         style="font-style:normal;font-variant:normal;font-weight:normal;font-stretch:normal;font-size:50.8px;font-family:'Arial Rounded MT Bold';-inkscape-font-specification:'Arial Rounded MT Bold, ';writing-mode:lr-tb;direction:ltr;vector-effect:non-scaling-stroke;fill:#000000;fill-opacity:1;stroke:#000000;stroke-width:0.69915;stroke-linejoin:bevel;stroke-dasharray:none;-inkscape-stroke:hairline;letter-spacing:3.49575039px"
         x="1642.6962"
         y="169.75447"
         id="text1"
         inkscape:label="HREF"><tspan
           sodipodi:role="line"
           style="font-style:normal;font-variant:normal;font-weight:normal;font-stretch:normal;font-size:50.8px;font-family:'Arial Rounded MT Bold';-inkscape-font-specification:'Arial Rounded MT Bold, ';vector-effect:non-scaling-stroke;fill:#000000;fill-opacity:1;stroke-width:0.69915;stroke-dasharray:none;-inkscape-stroke:hairline;letter-spacing:3.49575039px"
           x="1642.6962"
           y="169.75447"
           id="tspan2">https://jarmos.dev</tspan></text><g
         id="g15"
         inkscape:label="Search Icon"
         transform="matrix(0.71143174,0,0,0.71143174,443.20566,47.871726)"
         style="stroke-width:6.87916;stroke-dasharray:none"><circle
           style="fill:none;fill-opacity:1;stroke:#000000;stroke-width:6.87916;stroke-linejoin:bevel;stroke-dasharray:none"
           id="path3"
           cx="1563.8788"
           cy="134.95917"
           r="27.074659" /><path
           style="fill:none;fill-opacity:1;stroke:#000000;stroke-width:6.87916;stroke-linejoin:bevel;stroke-dasharray:none"
           d="m 1581.6631,155.92876 36.7632,36.76314"
           id="path4" /></g><rect
         style="fill:none;stroke:#000000;stroke-width:4.89405;stroke-linejoin:bevel;stroke-dasharray:none"
         id="rect2"
         width="1847.9382"
         height="105.04979"
         x="1503.8167"
         y="100.326"
         ry="52.524895"
         inkscape:label="URL Bar" /></g><g
       id="g12"
       transform="translate(-102.72059,252.318)"
       inkscape:label="Navigation Icons"
       style="stroke-width:4.25603;stroke-dasharray:none"><path
         style="fill:none;stroke:#000000;stroke-width:4.25603;stroke-linejoin:bevel;stroke-dasharray:none"
         d="m 1608.2212,343.70389 -22.6427,22.7808 22.4356,22.4355"
         id="path6" /><path
         style="fill:none;stroke:#000000;stroke-width:4.25603;stroke-linejoin:bevel;stroke-dasharray:none"
         d="m 1652.0054,388.92219 22.6427,-22.7808 -22.4356,-22.4355"
         id="path6-8" /></g><path
       id="path7"
       style="fill:none;stroke:#000000;stroke-width:4.25603;stroke-linejoin:bevel;stroke-dasharray:none;marker-end:url(#ArrowWideRounded)"
       d="m 3351.2588,628.47377 a 24.29941,24.29941 0 0 1 -21.1277,24.09152 24.29941,24.29941 0 0 1 -26.6431,-17.80237 24.29941,24.29941 0 0 1 14.1724,-28.73888 24.29941,24.29941 0 0 1 30.3429,10.30002"
       inkscape:label="Reload Button" /><g
       id="g8"
       transform="translate(1462.6515,267.42669)"
       inkscape:label="Hamburger Menu"
       style="stroke-width:4.25603;stroke-dasharray:none"><g
         id="g9"
         style="stroke-width:4.25603;stroke-dasharray:none"
         inkscape:label="Bars"
         transform="matrix(0.64346082,0,0,1.0743729,689.05173,-17.613166)"><path
           style="fill:none;stroke:#000000;stroke-width:4.25603;stroke-linejoin:bevel;stroke-dasharray:none"
           d="m 1956.0646,318.10138 h 104.9292"
           id="path8"
           inkscape:label="Bar 3" /><path
           style="fill:none;stroke:#000000;stroke-width:4.25603;stroke-linejoin:bevel;stroke-dasharray:none"
           d="m 1956.0646,351.20434 h 104.9292"
           id="path8-1"
           inkscape:label="Bar 2" /><path
           style="fill:none;stroke:#000000;stroke-width:4.25603;stroke-linejoin:bevel;stroke-dasharray:none"
           d="m 1956.0646,384.30731 h 104.9292"
           id="path8-1-2"
           inkscape:label="Bar 1" /></g></g></g><path
     style="fill:#55d400;fill-opacity:1;stroke:#000000;stroke-width:1.85208;stroke-linejoin:bevel;stroke-dasharray:none"
     d="M 353.33232,290.26441 H 840.39903"
     id="path40"
     inkscape:label="Divider"
     sodipodi:insensitive="true" /><text
     xml:space="preserve"
     style="font-style:normal;font-variant:normal;font-weight:normal;font-stretch:normal;font-size:39.6875px;font-family:'Arial Rounded MT Bold';-inkscape-font-specification:'Arial Rounded MT Bold, ';text-align:center;writing-mode:lr-tb;direction:ltr;text-anchor:middle;display:inline;fill:#000000;fill-opacity:1;stroke:#000000;stroke-width:1.85208;stroke-linejoin:bevel;stroke-dasharray:none"
     x="611.46411"
     y="352.8454"
     id="text43"
     inkscape:label="Title"
     sodipodi:insensitive="true"><tspan
       sodipodi:role="line"
       style="font-size:39.6875px;fill:#000000;fill-opacity:1;stroke-width:1.85208"
       x="611.46411"
       y="352.8454"
       id="tspan44">A COMPREHENSIVE GUIDE</tspan><tspan
       sodipodi:role="line"
       style="font-size:39.6875px;fill:#000000;fill-opacity:1;stroke-width:1.85208"
       x="611.46411"
       y="402.45477"
       id="tspan46">TO AUTHENTICATION IN WEB </tspan><tspan
       sodipodi:role="line"
       style="font-size:39.6875px;fill:#000000;fill-opacity:1;stroke-width:1.85208"
       x="611.46411"
       y="452.06415"
       id="tspan45">APPLICATIONS</tspan></text></svg>
