<svg xmlns="http://www.w3.org/2000/svg" xmlns:xlink="http://www.w3.org/1999/xlink" contentStyleType="text/css" data-diagram-type="SEQUENCE" height="705px" preserveAspectRatio="none" style="width:758px;height:705px;background:#FFFFFF;" version="1.1" viewBox="0 0 758 705" width="758px" zoomAndPan="magnify"><?plantuml 1.2026.3beta6?><defs/><g><g class="title" data-source-line="4"><text fill="#000000" font-family="sans-serif" font-size="14" font-weight="700" lengthAdjust="spacing" textLength="278.3047" x="236.3879" y="27.9951">Session-Based Authentication Flow</text></g><rect fill="#90EE90" height="163.6016" style="stroke:#000000;stroke-width:1.5;" width="530.8018" x="10" y="442.0547"/><rect fill="#FFC0CB" height="73.0703" style="stroke:none;stroke-width:1;" width="530.8018" x="10" y="532.5859"/><g class="participant-lifeline" data-entity-uid="part1" data-qualified-name="Client" data-source-line="6" id="part1-lifeline"><g><title>Client</title><rect fill="#000000" fill-opacity="0.00000" height="503.0625" width="8" x="43.5" y="119.5938"/><line style="stroke:#181818;stroke-width:0.5;stroke-dasharray:5,5;" x1="47" x2="47" y1="119.5938" y2="622.6563"/></g></g><g class="participant-lifeline" data-entity-uid="part2" data-qualified-name="Browser" data-source-line="7" id="part2-lifeline"><g><title>Web Browser . HTTP Client</title><rect fill="#000000" fill-opacity="0.00000" height="503.0625" width="8" x="197.1328" y="119.5938"/><line style="stroke:#181818;stroke-width:0.5;stroke-dasharray:5,5;" x1="200.3813" x2="200.3813" y1="119.5938" y2="622.6563"/></g></g><g class="participant-lifeline" data-entity-uid="part3" data-qualified-name="Server" data-source-line="8" id="part3-lifeline"><g><title>Web Server</title><rect fill="#000000" fill-opacity="0.00000" height="503.0625" width="8" x="478.9502" y="119.5938"/><line style="stroke:#181818;stroke-width:0.5;stroke-dasharray:5,5;" x1="482.0986" x2="482.0986" y1="119.5938" y2="622.6563"/></g></g><g class="participant-lifeline" data-entity-uid="part4" data-qualified-name="Store" data-source-line="9" id="part4-lifeline"><g><title>Session Store</title><rect fill="#000000" fill-opacity="0.00000" height="503.0625" width="8" x="692.4922" y="119.5938"/><line style="stroke:#181818;stroke-width:0.5;stroke-dasharray:5,5;" x1="695.9038" x2="695.9038" y1="119.5938" y2="622.6563"/></g></g><g class="participant participant-head" data-entity-uid="part1" data-qualified-name="Client" data-source-line="6" id="part1-head"><text fill="#000000" font-family="sans-serif" font-size="14" lengthAdjust="spacing" textLength="40.5303" x="24.2349" y="116.292">Client</text><ellipse cx="47.5" cy="58.7969" fill="#E2E2F0" rx="16" ry="16" style="stroke:#181818;stroke-width:0.5;"/><path d="M47.5,78.7969 C51.5,78.7969 54.5,78.7969 58.5,74.7969 C66.5,74.7969 74.5,82.7969 74.5,90.7969 L74.5,94.7969 C74.5,98.7969 70.5,102.7969 66.5,102.7969 L28.5,102.7969 C24.5,102.7969 20.5,98.7969 20.5,94.7969 L20.5,90.7969 C20.5,82.7969 28.5,74.7969 36.5,74.7969 C40.5,78.7969 43.5,78.7969 47.5,78.7969" fill="#E2E2F0" style="stroke:#181818;stroke-width:0.5;"/></g><g class="participant participant-tail" data-entity-uid="part1" data-qualified-name="Client" data-source-line="6" id="part1-tail"><text fill="#000000" font-family="sans-serif" font-size="14" lengthAdjust="spacing" textLength="40.5303" x="24.2349" y="634.6514">Client</text><ellipse cx="47.5" cy="654.4531" fill="#E2E2F0" rx="16" ry="16" style="stroke:#181818;stroke-width:0.5;"/><path d="M47.5,674.4531 C51.5,674.4531 54.5,674.4531 58.5,670.4531 C66.5,670.4531 74.5,678.4531 74.5,686.4531 L74.5,690.4531 C74.5,694.4531 70.5,698.4531 66.5,698.4531 L28.5,698.4531 C24.5,698.4531 20.5,694.4531 20.5,690.4531 L20.5,686.4531 C20.5,678.4531 28.5,670.4531 36.5,670.4531 C40.5,674.4531 43.5,674.4531 47.5,674.4531" fill="#E2E2F0" style="stroke:#181818;stroke-width:0.5;"/></g><g class="participant participant-head" data-entity-uid="part2" data-qualified-name="Browser" data-source-line="7" id="part2-head"><rect fill="#E2E2F0" height="30.2969" rx="2.5" ry="2.5" style="stroke:#181818;stroke-width:0.5;" width="201.5029" x="100.3813" y="88.2969"/><text fill="#000000" font-family="sans-serif" font-size="14" lengthAdjust="spacing" textLength="187.5029" x="107.3813" y="108.292">Web Browser / HTTP Client</text></g><g class="participant participant-tail" data-entity-uid="part2" data-qualified-name="Browser" data-source-line="7" id="part2-tail"><rect fill="#E2E2F0" height="30.2969" rx="2.5" ry="2.5" style="stroke:#181818;stroke-width:0.5;" width="201.5029" x="100.3813" y="621.6563"/><text fill="#000000" font-family="sans-serif" font-size="14" lengthAdjust="spacing" textLength="187.5029" x="107.3813" y="641.6514">Web Browser / HTTP Client</text></g><g class="participant participant-head" data-entity-uid="part3" data-qualified-name="Server" data-source-line="8" id="part3-head"><rect fill="#E2E2F0" height="30.2969" rx="2.5" ry="2.5" style="stroke:#181818;stroke-width:0.5;" width="95.7031" x="435.0986" y="88.2969"/><text fill="#000000" font-family="sans-serif" font-size="14" lengthAdjust="spacing" textLength="81.7031" x="442.0986" y="108.292">Web Server</text></g><g class="participant participant-tail" data-entity-uid="part3" data-qualified-name="Server" data-source-line="8" id="part3-tail"><rect fill="#E2E2F0" height="30.2969" rx="2.5" ry="2.5" style="stroke:#181818;stroke-width:0.5;" width="95.7031" x="435.0986" y="621.6563"/><text fill="#000000" font-family="sans-serif" font-size="14" lengthAdjust="spacing" textLength="81.7031" x="442.0986" y="641.6514">Web Server</text></g><g class="participant participant-head" data-entity-uid="part4" data-qualified-name="Store" data-source-line="9" id="part4-head"><text fill="#000000" font-family="sans-serif" font-size="14" lengthAdjust="spacing" textLength="95.1768" x="645.9038" y="116.292">Session Store</text><path d="M678.4922,67.2969 C678.4922,57.2969 696.4922,57.2969 696.4922,57.2969 C696.4922,57.2969 714.4922,57.2969 714.4922,67.2969 L714.4922,93.2969 C714.4922,103.2969 696.4922,103.2969 696.4922,103.2969 C696.4922,103.2969 678.4922,103.2969 678.4922,93.2969 L678.4922,67.2969" fill="#E2E2F0" style="stroke:#181818;stroke-width:0.5;"/><path d="M678.4922,67.2969 C678.4922,77.2969 696.4922,77.2969 696.4922,77.2969 C696.4922,77.2969 714.4922,77.2969 714.4922,67.2969" fill="none" style="stroke:#181818;stroke-width:0.5;"/></g><g class="participant participant-tail" data-entity-uid="part4" data-qualified-name="Store" data-source-line="9" id="part4-tail"><text fill="#000000" font-family="sans-serif" font-size="14" lengthAdjust="spacing" textLength="95.1768" x="645.9038" y="634.6514">Session Store</text><path d="M678.4922,647.9531 C678.4922,637.9531 696.4922,637.9531 696.4922,637.9531 C696.4922,637.9531 714.4922,637.9531 714.4922,647.9531 L714.4922,673.9531 C714.4922,683.9531 696.4922,683.9531 696.4922,683.9531 C696.4922,683.9531 678.4922,683.9531 678.4922,673.9531 L678.4922,647.9531" fill="#E2E2F0" style="stroke:#181818;stroke-width:0.5;"/><path d="M678.4922,647.9531 C678.4922,657.9531 696.4922,657.9531 696.4922,657.9531 C696.4922,657.9531 714.4922,657.9531 714.4922,647.9531" fill="none" style="stroke:#181818;stroke-width:0.5;"/></g><g class="message" data-entity-1="part1" data-entity-2="part2" data-source-line="11" id="msg1"><polygon fill="#181818" points="189.1328,146.7266,199.1328,150.7266,189.1328,154.7266,193.1328,150.7266" style="stroke:#181818;stroke-width:1;"/><line style="stroke:#181818;stroke-width:1;" x1="47.5" x2="195.1328" y1="150.7266" y2="150.7266"/><text fill="#000000" font-family="sans-serif" font-size="13" font-weight="700" lengthAdjust="spacing" textLength="9.0454" x="54.5" y="145.6606">1</text><text fill="#000000" font-family="sans-serif" font-size="13" lengthAdjust="spacing" textLength="116.5874" x="67.5454" y="145.6606">Submit login form</text></g><g class="message" data-entity-1="part2" data-entity-2="part3" data-source-line="12" id="msg2"><polygon fill="#181818" points="470.9502,175.8594,480.9502,179.8594,470.9502,183.8594,474.9502,179.8594" style="stroke:#181818;stroke-width:1;"/><line style="stroke:#181818;stroke-width:1;" x1="201.1328" x2="476.9502" y1="179.8594" y2="179.8594"/><text fill="#000000" font-family="sans-serif" font-size="13" font-weight="700" lengthAdjust="spacing" textLength="9.0454" x="208.1328" y="174.7935">2</text><text fill="#000000" font-family="sans-serif" font-size="13" lengthAdjust="spacing" textLength="224.1548" x="221.1782" y="174.7935">POST /login (username, password)</text></g><g class="message" data-entity-1="part3" data-entity-2="part3" data-source-line="14" id="msg3"><line style="stroke:#181818;stroke-width:1;" x1="482.9502" x2="524.9502" y1="208.9922" y2="208.9922"/><line style="stroke:#181818;stroke-width:1;" x1="524.9502" x2="524.9502" y1="208.9922" y2="221.9922"/><line style="stroke:#181818;stroke-width:1;" x1="483.9502" x2="524.9502" y1="221.9922" y2="221.9922"/><polygon fill="#181818" points="493.9502,217.9922,483.9502,221.9922,493.9502,225.9922,489.9502,221.9922" style="stroke:#181818;stroke-width:1;"/><text fill="#000000" font-family="sans-serif" font-size="13" font-weight="700" lengthAdjust="spacing" textLength="9.0454" x="489.9502" y="203.9263">3</text><text fill="#000000" font-family="sans-serif" font-size="13" lengthAdjust="spacing" textLength="129.5684" x="502.9956" y="203.9263">Validate credentials</text></g><g class="message" data-entity-1="part3" data-entity-2="part4" data-source-line="15" id="msg4"><polygon fill="#181818" points="684.4922,247.125,694.4922,251.125,684.4922,255.125,688.4922,251.125" style="stroke:#181818;stroke-width:1;"/><line style="stroke:#181818;stroke-width:1;" x1="482.9502" x2="690.4922" y1="251.125" y2="251.125"/><text fill="#000000" font-family="sans-serif" font-size="13" font-weight="700" lengthAdjust="spacing" textLength="9.0454" x="489.9502" y="246.0591">4</text><text fill="#000000" font-family="sans-serif" font-size="13" lengthAdjust="spacing" textLength="176.4966" x="502.9956" y="246.0591">Create session (session_id)</text></g><g class="message" data-entity-1="part4" data-entity-2="part3" data-source-line="16" id="msg5"><polygon fill="#181818" points="493.9502,276.2578,483.9502,280.2578,493.9502,284.2578,489.9502,280.2578" style="stroke:#181818;stroke-width:1;"/><line style="stroke:#181818;stroke-width:1;stroke-dasharray:2,2;" x1="487.9502" x2="695.4922" y1="280.2578" y2="280.2578"/><text fill="#000000" font-family="sans-serif" font-size="13" font-weight="700" lengthAdjust="spacing" textLength="9.0454" x="499.9502" y="275.1919">5</text><text fill="#000000" font-family="sans-serif" font-size="13" lengthAdjust="spacing" textLength="95.1514" x="512.9956" y="275.1919">Session stored</text></g><g class="message" data-entity-1="part3" data-entity-2="part2" data-source-line="18" id="msg6"><polygon fill="#181818" points="212.1328,320.5234,202.1328,324.5234,212.1328,328.5234,208.1328,324.5234" style="stroke:#181818;stroke-width:1;"/><line style="stroke:#181818;stroke-width:1;" x1="206.1328" x2="481.9502" y1="324.5234" y2="324.5234"/><text fill="#000000" font-family="sans-serif" font-size="13" font-weight="700" lengthAdjust="spacing" textLength="9.0454" x="218.1328" y="311.8911">6</text><text fill="#000000" font-family="sans-serif" font-size="13" lengthAdjust="spacing" textLength="47.7026" x="231.1782" y="304.3247">200 OK</text><text fill="#000000" font-family="sans-serif" font-size="13" lengthAdjust="spacing" textLength="244.772" x="231.1782" y="319.4575">Set-Cookie: session_id=xyz; HttpOnly</text></g><g class="message" data-entity-1="part2" data-entity-2="part3" data-source-line="20" id="msg7"><polygon fill="#181818" points="470.9502,364.7891,480.9502,368.7891,470.9502,372.7891,474.9502,368.7891" style="stroke:#181818;stroke-width:1;"/><line style="stroke:#181818;stroke-width:1;" x1="201.1328" x2="476.9502" y1="368.7891" y2="368.7891"/><text fill="#000000" font-family="sans-serif" font-size="13" font-weight="700" lengthAdjust="spacing" textLength="9.0454" x="208.1328" y="356.1567">7</text><text fill="#000000" font-family="sans-serif" font-size="13" lengthAdjust="spacing" textLength="91.5396" x="221.1782" y="348.5903">GET /resource</text><text fill="#000000" font-family="sans-serif" font-size="13" lengthAdjust="spacing" textLength="152.2231" x="221.1782" y="363.7231">Cookie: session_id=xyz</text></g><g class="message" data-entity-1="part3" data-entity-2="part4" data-source-line="22" id="msg8"><polygon fill="#181818" points="684.4922,393.9219,694.4922,397.9219,684.4922,401.9219,688.4922,397.9219" style="stroke:#181818;stroke-width:1;"/><line style="stroke:#181818;stroke-width:1;" x1="482.9502" x2="690.4922" y1="397.9219" y2="397.9219"/><text fill="#000000" font-family="sans-serif" font-size="13" font-weight="700" lengthAdjust="spacing" textLength="9.0454" x="489.9502" y="392.856">8</text><text fill="#000000" font-family="sans-serif" font-size="13" lengthAdjust="spacing" textLength="117.7871" x="502.9956" y="392.856">Lookup session_id</text></g><g class="message" data-entity-1="part4" data-entity-2="part3" data-source-line="23" id="msg9"><polygon fill="#181818" points="493.9502,423.0547,483.9502,427.0547,493.9502,431.0547,489.9502,427.0547" style="stroke:#181818;stroke-width:1;"/><line style="stroke:#181818;stroke-width:1;stroke-dasharray:2,2;" x1="487.9502" x2="695.4922" y1="427.0547" y2="427.0547"/><text fill="#000000" font-family="sans-serif" font-size="13" font-weight="700" lengthAdjust="spacing" textLength="9.0454" x="499.9502" y="421.9888">9</text><text fill="#000000" font-family="sans-serif" font-size="13" lengthAdjust="spacing" textLength="83.0146" x="512.9956" y="421.9888">Session data</text></g><path d="M10,442.0547 L74.4429,442.0547 L74.4429,449.1875 L64.4429,459.1875 L10,459.1875 L10,442.0547" fill="#FFD700" style="stroke:#000000;stroke-width:1.5;"/><rect fill="none" height="163.6016" style="stroke:#000000;stroke-width:1.5;" width="530.8018" x="10" y="442.0547"/><text fill="#000000" font-family="sans-serif" font-size="13" font-weight="700" lengthAdjust="spacing" textLength="19.4429" x="25" y="455.1216">alt</text><text fill="#000000" font-family="sans-serif" font-size="11" font-weight="700" lengthAdjust="spacing" textLength="91.4966" x="89.4429" y="454.2651">[Valid session]</text><g class="message" data-entity-1="part3" data-entity-2="part2" data-source-line="26" id="msg10"><polygon fill="#181818" points="212.1328,491.4531,202.1328,495.4531,212.1328,499.4531,208.1328,495.4531" style="stroke:#181818;stroke-width:1;"/><line style="stroke:#181818;stroke-width:1;" x1="206.1328" x2="481.9502" y1="495.4531" y2="495.4531"/><text fill="#000000" font-family="sans-serif" font-size="13" font-weight="700" lengthAdjust="spacing" textLength="18.0908" x="218.1328" y="482.8208">10</text><text fill="#000000" font-family="sans-serif" font-size="13" lengthAdjust="spacing" textLength="47.7026" x="240.2236" y="475.2544">200 OK</text><text fill="#000000" font-family="sans-serif" font-size="13" lengthAdjust="spacing" textLength="127.3467" x="240.2236" y="490.3872">Protected Resource</text></g><g class="message" data-entity-1="part2" data-entity-2="part1" data-source-line="27" id="msg11"><polygon fill="#181818" points="58.5,520.5859,48.5,524.5859,58.5,528.5859,54.5,524.5859" style="stroke:#181818;stroke-width:1;"/><line style="stroke:#181818;stroke-width:1;" x1="52.5" x2="200.1328" y1="524.5859" y2="524.5859"/><text fill="#000000" font-family="sans-serif" font-size="13" font-weight="700" lengthAdjust="spacing" textLength="18.0908" x="64.5" y="519.52">11</text><text fill="#000000" font-family="sans-serif" font-size="13" lengthAdjust="spacing" textLength="101.8228" x="86.5908" y="519.52">Display content</text></g><line style="stroke:#000000;stroke-width:1;stroke-dasharray:2,2;" x1="10" x2="540.8018" y1="533.5859" y2="533.5859"/><text fill="#000000" font-family="sans-serif" font-size="11" font-weight="700" lengthAdjust="spacing" textLength="153.0547" x="15" y="543.7964">[Invalid/expired session]</text><g class="message" data-entity-1="part3" data-entity-2="part2" data-source-line="29" id="msg12"><polygon fill="#181818" points="212.1328,564.5234,202.1328,568.5234,212.1328,572.5234,208.1328,568.5234" style="stroke:#181818;stroke-width:1;"/><line style="stroke:#181818;stroke-width:1;" x1="206.1328" x2="481.9502" y1="568.5234" y2="568.5234"/><text fill="#000000" font-family="sans-serif" font-size="13" font-weight="700" lengthAdjust="spacing" textLength="18.0908" x="218.1328" y="563.4575">12</text><text fill="#000000" font-family="sans-serif" font-size="13" lengthAdjust="spacing" textLength="116.2256" x="240.2236" y="563.4575">401 Unauthorized</text></g><g class="message" data-entity-1="part2" data-entity-2="part1" data-source-line="30" id="msg13"><polygon fill="#181818" points="58.5,593.6563,48.5,597.6563,58.5,601.6563,54.5,597.6563" style="stroke:#181818;stroke-width:1;"/><line style="stroke:#181818;stroke-width:1;" x1="52.5" x2="200.1328" y1="597.6563" y2="597.6563"/><text fill="#000000" font-family="sans-serif" font-size="13" font-weight="700" lengthAdjust="spacing" textLength="18.0908" x="64.5" y="592.5903">13</text><text fill="#000000" font-family="sans-serif" font-size="13" lengthAdjust="spacing" textLength="107.4658" x="86.5908" y="592.5903">Redirect to login</text></g><?plantuml-src XPDFJy904CNl-oacSC540XfF64q45Oma48fw8J5BEyA6xMwpE-NVftTAMsaY8gSDxxTlvkrC_KgPH3ePWmp9ke1s6a5kqDiOXKp9cZIUenE25B4IeFVAccPNUepW8QKb6bAX9FuJdhNT277mWPvMh0YsPbabqX3KFd0ENMSt7XsqO32TZWki1jANokyh0RerkWEJ7qKaISwv0wWL_K30DJ57ifCGkJ4qxtygTY18vx4Yq7QX37nP5ujIOootPcey2gRGog56oggHCLv28htVM1TT256WrKllKYlk2Y5q66LF8hMlSbbJZFKSPf0lkcuKXq_5jZdJhBgMwNmcHTN2nr3NxJQCNcScG6hsh5qfxC3Hzcwxsz_2W2WP6RqJ9mFtdpYluucdBiIPEMqYJgGPCfac5V1SXcncl1oQwdsh8wWFrM99VOTeyiShRGJmxrpGiRE48V7wJOgU3rSgoOhPT-1H-KJB7OJMKBQDg7bdwcDbLl1YrbdL5cuJnM_xR_MRzXMy6VuWbjQfFG_ZhveJZDWm922RRvf04tq3?></g></svg>
