<svg xmlns="http://www.w3.org/2000/svg" xmlns:xlink="http://www.w3.org/1999/xlink" contentStyleType="text/css" data-diagram-type="SEQUENCE" height="819px" preserveAspectRatio="none" style="width:944px;height:819px;background:#FFFFFF;" version="1.1" viewBox="0 0 944 819" width="944px" zoomAndPan="magnify"><?plantuml 1.2026.3beta6?><defs/><g><g class="title" data-source-line="4"><text fill="#000000" font-family="sans-serif" font-size="14" font-weight="700" lengthAdjust="spacing" textLength="260.8115" x="338.2957" y="27.9951">HTTP Digest Authentication Flow</text></g><rect fill="#90EE90" height="163.6016" style="stroke:#000000;stroke-width:1.5;" width="747.7495" x="10" y="555.5859"/><rect fill="#FFC0CB" height="73.0703" style="stroke:none;stroke-width:1;" width="747.7495" x="10" y="646.1172"/><g class="participant-lifeline" data-entity-uid="part1" data-qualified-name="Client" data-source-line="6" id="part1-lifeline"><g><title>Client</title><rect fill="#000000" fill-opacity="0.00000" height="616.5938" width="8" x="43.5" y="119.5938"/><line style="stroke:#181818;stroke-width:0.5;stroke-dasharray:5,5;" x1="47" x2="47" y1="119.5938" y2="736.1875"/></g></g><g class="participant-lifeline" data-entity-uid="part2" data-qualified-name="Browser" data-source-line="7" id="part2-lifeline"><g><title>Web Browser . HTTP Client</title><rect fill="#000000" fill-opacity="0.00000" height="616.5938" width="8" x="285.3843" y="119.5938"/><line style="stroke:#181818;stroke-width:0.5;stroke-dasharray:5,5;" x1="288.6328" x2="288.6328" y1="119.5938" y2="736.1875"/></g></g><g class="participant-lifeline" data-entity-uid="part3" data-qualified-name="Server" data-source-line="8" id="part3-lifeline"><g><title>Web Server</title><rect fill="#000000" fill-opacity="0.00000" height="616.5938" width="8" x="695.8979" y="119.5938"/><line style="stroke:#181818;stroke-width:0.5;stroke-dasharray:5,5;" x1="699.0464" x2="699.0464" y1="119.5938" y2="736.1875"/></g></g><g class="participant participant-head" data-entity-uid="part1" data-qualified-name="Client" data-source-line="6" id="part1-head"><text fill="#000000" font-family="sans-serif" font-size="14" lengthAdjust="spacing" textLength="40.5303" x="24.2349" y="116.292">Client</text><ellipse cx="47.5" cy="58.7969" fill="#E2E2F0" rx="16" ry="16" style="stroke:#181818;stroke-width:0.5;"/><path d="M47.5,78.7969 C51.5,78.7969 54.5,78.7969 58.5,74.7969 C66.5,74.7969 74.5,82.7969 74.5,90.7969 L74.5,94.7969 C74.5,98.7969 70.5,102.7969 66.5,102.7969 L28.5,102.7969 C24.5,102.7969 20.5,98.7969 20.5,94.7969 L20.5,90.7969 C20.5,82.7969 28.5,74.7969 36.5,74.7969 C40.5,78.7969 43.5,78.7969 47.5,78.7969" fill="#E2E2F0" style="stroke:#181818;stroke-width:0.5;"/></g><g class="participant participant-tail" data-entity-uid="part1" data-qualified-name="Client" data-source-line="6" id="part1-tail"><text fill="#000000" font-family="sans-serif" font-size="14" lengthAdjust="spacing" textLength="40.5303" x="24.2349" y="748.1826">Client</text><ellipse cx="47.5" cy="767.9844" fill="#E2E2F0" rx="16" ry="16" style="stroke:#181818;stroke-width:0.5;"/><path d="M47.5,787.9844 C51.5,787.9844 54.5,787.9844 58.5,783.9844 C66.5,783.9844 74.5,791.9844 74.5,799.9844 L74.5,803.9844 C74.5,807.9844 70.5,811.9844 66.5,811.9844 L28.5,811.9844 C24.5,811.9844 20.5,807.9844 20.5,803.9844 L20.5,799.9844 C20.5,791.9844 28.5,783.9844 36.5,783.9844 C40.5,787.9844 43.5,787.9844 47.5,787.9844" fill="#E2E2F0" style="stroke:#181818;stroke-width:0.5;"/></g><g class="participant participant-head" data-entity-uid="part2" data-qualified-name="Browser" data-source-line="7" id="part2-head"><rect fill="#E2E2F0" height="30.2969" rx="2.5" ry="2.5" style="stroke:#181818;stroke-width:0.5;" width="201.5029" x="188.6328" y="88.2969"/><text fill="#000000" font-family="sans-serif" font-size="14" lengthAdjust="spacing" textLength="187.5029" x="195.6328" y="108.292">Web Browser / HTTP Client</text></g><g class="participant participant-tail" data-entity-uid="part2" data-qualified-name="Browser" data-source-line="7" id="part2-tail"><rect fill="#E2E2F0" height="30.2969" rx="2.5" ry="2.5" style="stroke:#181818;stroke-width:0.5;" width="201.5029" x="188.6328" y="735.1875"/><text fill="#000000" font-family="sans-serif" font-size="14" lengthAdjust="spacing" textLength="187.5029" x="195.6328" y="755.1826">Web Browser / HTTP Client</text></g><g class="participant participant-head" data-entity-uid="part3" data-qualified-name="Server" data-source-line="8" id="part3-head"><rect fill="#E2E2F0" height="30.2969" rx="2.5" ry="2.5" style="stroke:#181818;stroke-width:0.5;" width="95.7031" x="652.0464" y="88.2969"/><text fill="#000000" font-family="sans-serif" font-size="14" lengthAdjust="spacing" textLength="81.7031" x="659.0464" y="108.292">Web Server</text></g><g class="participant participant-tail" data-entity-uid="part3" data-qualified-name="Server" data-source-line="8" id="part3-tail"><rect fill="#E2E2F0" height="30.2969" rx="2.5" ry="2.5" style="stroke:#181818;stroke-width:0.5;" width="95.7031" x="652.0464" y="735.1875"/><text fill="#000000" font-family="sans-serif" font-size="14" lengthAdjust="spacing" textLength="81.7031" x="659.0464" y="755.1826">Web Server</text></g><g class="message" data-entity-1="part1" data-entity-2="part2" data-source-line="10" id="msg1"><polygon fill="#181818" points="277.3843,146.7266,287.3843,150.7266,277.3843,154.7266,281.3843,150.7266" style="stroke:#181818;stroke-width:1;"/><line style="stroke:#181818;stroke-width:1;" x1="47.5" x2="283.3843" y1="150.7266" y2="150.7266"/><text fill="#000000" font-family="sans-serif" font-size="13" font-weight="700" lengthAdjust="spacing" textLength="9.0454" x="54.5" y="145.6606">1</text><text fill="#000000" font-family="sans-serif" font-size="13" lengthAdjust="spacing" textLength="181.5938" x="67.5454" y="145.6606">Request protected resource</text></g><g class="message" data-entity-1="part2" data-entity-2="part3" data-source-line="11" id="msg2"><polygon fill="#181818" points="687.8979,175.8594,697.8979,179.8594,687.8979,183.8594,691.8979,179.8594" style="stroke:#181818;stroke-width:1;"/><line style="stroke:#181818;stroke-width:1;" x1="289.3843" x2="693.8979" y1="179.8594" y2="179.8594"/><text fill="#000000" font-family="sans-serif" font-size="13" font-weight="700" lengthAdjust="spacing" textLength="9.0454" x="296.3843" y="174.7935">2</text><text fill="#000000" font-family="sans-serif" font-size="13" lengthAdjust="spacing" textLength="91.5396" x="309.4297" y="174.7935">GET /resource</text></g><g class="message" data-entity-1="part3" data-entity-2="part2" data-source-line="13" id="msg3"><polygon fill="#181818" points="300.3843,235.2578,290.3843,239.2578,300.3843,243.2578,296.3843,239.2578" style="stroke:#181818;stroke-width:1;"/><line style="stroke:#181818;stroke-width:1;" x1="294.3843" x2="698.8979" y1="239.2578" y2="239.2578"/><text fill="#000000" font-family="sans-serif" font-size="13" font-weight="700" lengthAdjust="spacing" textLength="9.0454" x="306.3843" y="219.0591">3</text><text fill="#000000" font-family="sans-serif" font-size="13" lengthAdjust="spacing" textLength="116.2256" x="319.4297" y="203.9263">401 Unauthorized</text><text fill="#000000" font-family="sans-serif" font-size="13" lengthAdjust="spacing" textLength="302.0151" x="319.4297" y="219.0591">WWW-Authenticate: Digest realm="example",</text><text fill="#000000" font-family="sans-serif" font-size="13" lengthAdjust="spacing" textLength="195.7236" x="323.562" y="234.1919">nonce="abc123", qop="auth"</text></g><g class="message" data-entity-1="part2" data-entity-2="part1" data-source-line="15" id="msg4"><polygon fill="#181818" points="58.5,264.3906,48.5,268.3906,58.5,272.3906,54.5,268.3906" style="stroke:#181818;stroke-width:1;"/><line style="stroke:#181818;stroke-width:1;" x1="52.5" x2="288.3843" y1="268.3906" y2="268.3906"/><text fill="#000000" font-family="sans-serif" font-size="13" font-weight="700" lengthAdjust="spacing" textLength="9.0454" x="64.5" y="263.3247">4</text><text fill="#000000" font-family="sans-serif" font-size="13" lengthAdjust="spacing" textLength="204.8389" x="77.5454" y="263.3247">Prompt for username/password</text></g><g class="message" data-entity-1="part1" data-entity-2="part2" data-source-line="17" id="msg5"><polygon fill="#181818" points="277.3843,293.5234,287.3843,297.5234,277.3843,301.5234,281.3843,297.5234" style="stroke:#181818;stroke-width:1;"/><line style="stroke:#181818;stroke-width:1;" x1="47.5" x2="283.3843" y1="297.5234" y2="297.5234"/><text fill="#000000" font-family="sans-serif" font-size="13" font-weight="700" lengthAdjust="spacing" textLength="9.0454" x="54.5" y="292.4575">5</text><text fill="#000000" font-family="sans-serif" font-size="13" lengthAdjust="spacing" textLength="117.8379" x="67.5454" y="292.4575">Enters credentials</text></g><g class="message" data-entity-1="part2" data-entity-2="part2" data-source-line="19" id="msg6"><line style="stroke:#181818;stroke-width:1;" x1="289.3843" x2="331.3843" y1="326.6563" y2="326.6563"/><line style="stroke:#181818;stroke-width:1;" x1="331.3843" x2="331.3843" y1="326.6563" y2="339.6563"/><line style="stroke:#181818;stroke-width:1;" x1="290.3843" x2="331.3843" y1="339.6563" y2="339.6563"/><polygon fill="#181818" points="300.3843,335.6563,290.3843,339.6563,300.3843,343.6563,296.3843,339.6563" style="stroke:#181818;stroke-width:1;"/><text fill="#000000" font-family="sans-serif" font-size="13" font-weight="700" lengthAdjust="spacing" textLength="9.0454" x="296.3843" y="321.5903">6</text><text fill="#000000" font-family="sans-serif" font-size="13" lengthAdjust="spacing" textLength="322.6641" x="309.4297" y="321.5903">Compute HA1 = MD5(username:realm:password)</text></g><g class="message" data-entity-1="part2" data-entity-2="part2" data-source-line="20" id="msg7"><line style="stroke:#181818;stroke-width:1;" x1="289.3843" x2="331.3843" y1="368.7891" y2="368.7891"/><line style="stroke:#181818;stroke-width:1;" x1="331.3843" x2="331.3843" y1="368.7891" y2="381.7891"/><line style="stroke:#181818;stroke-width:1;" x1="290.3843" x2="331.3843" y1="381.7891" y2="381.7891"/><polygon fill="#181818" points="300.3843,377.7891,290.3843,381.7891,300.3843,385.7891,296.3843,381.7891" style="stroke:#181818;stroke-width:1;"/><text fill="#000000" font-family="sans-serif" font-size="13" font-weight="700" lengthAdjust="spacing" textLength="9.0454" x="296.3843" y="363.7231">7</text><text fill="#000000" font-family="sans-serif" font-size="13" lengthAdjust="spacing" textLength="220.9302" x="309.4297" y="363.7231">Compute HA2 = MD5(method:uri)</text></g><g class="message" data-entity-1="part2" data-entity-2="part2" data-source-line="21" id="msg8"><line style="stroke:#181818;stroke-width:1;" x1="289.3843" x2="331.3843" y1="410.9219" y2="410.9219"/><line style="stroke:#181818;stroke-width:1;" x1="331.3843" x2="331.3843" y1="410.9219" y2="423.9219"/><line style="stroke:#181818;stroke-width:1;" x1="290.3843" x2="331.3843" y1="423.9219" y2="423.9219"/><polygon fill="#181818" points="300.3843,419.9219,290.3843,423.9219,300.3843,427.9219,296.3843,423.9219" style="stroke:#181818;stroke-width:1;"/><text fill="#000000" font-family="sans-serif" font-size="13" font-weight="700" lengthAdjust="spacing" textLength="9.0454" x="296.3843" y="405.856">8</text><text fill="#000000" font-family="sans-serif" font-size="13" lengthAdjust="spacing" textLength="383.4683" x="309.4297" y="405.856">Compute response = MD5(HA1:nonce:nc:cnonce:qop:HA2)</text></g><g class="message" data-entity-1="part2" data-entity-2="part3" data-source-line="23" id="msg9"><polygon fill="#181818" points="687.8979,479.3203,697.8979,483.3203,687.8979,487.3203,691.8979,483.3203" style="stroke:#181818;stroke-width:1;"/><line style="stroke:#181818;stroke-width:1;" x1="289.3843" x2="693.8979" y1="483.3203" y2="483.3203"/><text fill="#000000" font-family="sans-serif" font-size="13" font-weight="700" lengthAdjust="spacing" textLength="9.0454" x="296.3843" y="463.1216">9</text><text fill="#000000" font-family="sans-serif" font-size="13" lengthAdjust="spacing" textLength="91.5396" x="309.4297" y="447.9888">GET /resource</text><text fill="#000000" font-family="sans-serif" font-size="13" lengthAdjust="spacing" textLength="256.6611" x="309.4297" y="463.1216">Authorization: Digest username, realm,</text><text fill="#000000" font-family="sans-serif" font-size="13" lengthAdjust="spacing" textLength="243.9976" x="313.562" y="478.2544">nonce, uri, response, qop, nc, cnonce</text></g><g class="message" data-entity-1="part3" data-entity-2="part3" data-source-line="25" id="msg10"><line style="stroke:#181818;stroke-width:1;" x1="699.8979" x2="741.8979" y1="527.5859" y2="527.5859"/><line style="stroke:#181818;stroke-width:1;" x1="741.8979" x2="741.8979" y1="527.5859" y2="540.5859"/><line style="stroke:#181818;stroke-width:1;" x1="700.8979" x2="741.8979" y1="540.5859" y2="540.5859"/><polygon fill="#181818" points="710.8979,536.5859,700.8979,540.5859,710.8979,544.5859,706.8979,540.5859" style="stroke:#181818;stroke-width:1;"/><text fill="#000000" font-family="sans-serif" font-size="13" font-weight="700" lengthAdjust="spacing" textLength="18.0908" x="706.8979" y="514.9536">10</text><text fill="#000000" font-family="sans-serif" font-size="13" lengthAdjust="spacing" textLength="202.4141" x="728.9888" y="507.3872">Recompute expected response</text><text fill="#000000" font-family="sans-serif" font-size="13" lengthAdjust="spacing" textLength="129.5684" x="728.9888" y="522.52">Validate credentials</text></g><path d="M10,555.5859 L74.4429,555.5859 L74.4429,562.7188 L64.4429,572.7188 L10,572.7188 L10,555.5859" fill="#FFD700" style="stroke:#000000;stroke-width:1.5;"/><rect fill="none" height="163.6016" style="stroke:#000000;stroke-width:1.5;" width="747.7495" x="10" y="555.5859"/><text fill="#000000" font-family="sans-serif" font-size="13" font-weight="700" lengthAdjust="spacing" textLength="19.4429" x="25" y="568.6528">alt</text><text fill="#000000" font-family="sans-serif" font-size="11" font-weight="700" lengthAdjust="spacing" textLength="114.5762" x="89.4429" y="567.7964">[Valid credentials]</text><g class="message" data-entity-1="part3" data-entity-2="part2" data-source-line="28" id="msg11"><polygon fill="#181818" points="300.3843,604.9844,290.3843,608.9844,300.3843,612.9844,296.3843,608.9844" style="stroke:#181818;stroke-width:1;"/><line style="stroke:#181818;stroke-width:1;" x1="294.3843" x2="698.8979" y1="608.9844" y2="608.9844"/><text fill="#000000" font-family="sans-serif" font-size="13" font-weight="700" lengthAdjust="spacing" textLength="18.0908" x="306.3843" y="596.3521">11</text><text fill="#000000" font-family="sans-serif" font-size="13" lengthAdjust="spacing" textLength="47.7026" x="328.4751" y="588.7856">200 OK</text><text fill="#000000" font-family="sans-serif" font-size="13" lengthAdjust="spacing" textLength="127.3467" x="328.4751" y="603.9185">Protected Resource</text></g><g class="message" data-entity-1="part2" data-entity-2="part1" data-source-line="29" id="msg12"><polygon fill="#181818" points="58.5,634.1172,48.5,638.1172,58.5,642.1172,54.5,638.1172" style="stroke:#181818;stroke-width:1;"/><line style="stroke:#181818;stroke-width:1;" x1="52.5" x2="288.3843" y1="638.1172" y2="638.1172"/><text fill="#000000" font-family="sans-serif" font-size="13" font-weight="700" lengthAdjust="spacing" textLength="18.0908" x="64.5" y="633.0513">12</text><text fill="#000000" font-family="sans-serif" font-size="13" lengthAdjust="spacing" textLength="101.8228" x="86.5908" y="633.0513">Display content</text></g><line style="stroke:#000000;stroke-width:1;stroke-dasharray:2,2;" x1="10" x2="757.7495" y1="647.1172" y2="647.1172"/><text fill="#000000" font-family="sans-serif" font-size="11" font-weight="700" lengthAdjust="spacing" textLength="125.1572" x="15" y="657.3276">[Invalid credentials]</text><g class="message" data-entity-1="part3" data-entity-2="part2" data-source-line="31" id="msg13"><polygon fill="#181818" points="300.3843,678.0547,290.3843,682.0547,300.3843,686.0547,296.3843,682.0547" style="stroke:#181818;stroke-width:1;"/><line style="stroke:#181818;stroke-width:1;" x1="294.3843" x2="698.8979" y1="682.0547" y2="682.0547"/><text fill="#000000" font-family="sans-serif" font-size="13" font-weight="700" lengthAdjust="spacing" textLength="18.0908" x="306.3843" y="676.9888">13</text><text fill="#000000" font-family="sans-serif" font-size="13" lengthAdjust="spacing" textLength="116.2256" x="328.4751" y="676.9888">401 Unauthorized</text></g><g class="message" data-entity-1="part2" data-entity-2="part1" data-source-line="32" id="msg14"><polygon fill="#181818" points="58.5,707.1875,48.5,711.1875,58.5,715.1875,54.5,711.1875" style="stroke:#181818;stroke-width:1;"/><line style="stroke:#181818;stroke-width:1;" x1="52.5" x2="288.3843" y1="711.1875" y2="711.1875"/><text fill="#000000" font-family="sans-serif" font-size="13" font-weight="700" lengthAdjust="spacing" textLength="18.0908" x="64.5" y="706.1216">14</text><text fill="#000000" font-family="sans-serif" font-size="13" lengthAdjust="spacing" textLength="167.0132" x="86.5908" y="706.1216">Show error / retry prompt</text></g><?plantuml-src ZLDDRzD04BtlhnWv5ogvoWTmiHIaq9I0014bWLnosQo7PjNrh3jUDsr_FHD_aK1Gy6czy-RDp9ktnRsbNBFEG9lWUHcU7OBUO-4pLBeCdifiYwnKi44Y7rUhEKpj7HO19cNO8GLhTB2Uu8FpUwKg5hXnLY9AY2LiSqq1eZLkuJtxVO4C_PgeXaMWYpRoTyeI-H6vmjH7fUeqk7xNyIMmm8Voq5JEFg09c0BB32KRL2r8y3M3m6UtA-Xt2DNSdp2-6GpXEua4Ey_s1TCDhTVhwwEXCMcLODGk6qVufBFSOHHl2CYJmN6ajsOuUXt5yE1p-PFaI1qtr8oIm9nzbWVuAUAL4YETOJ_NHR7td9wV-9O2SW66CJqqf5rnmlmRU2FCPP3TJOOmXg_Jjw_Q2adLUDBMkRgKFshoCnHHqgHaUo555Cuz5TZaIGT99Kn29Z7rIOH9XFbANTxJXYRDDYh7TVAtuyJr8ZhvOv0Euww9QWana8cXhdsyzwxY0atJF3xbdPCgWWtzqCwcilbJrRKBlPbtAVI-sBjTc34YGGKzmO5yvums6WpWs-SDpJlhBbfZ7bBEkMLgYzpfPp1UJ20F3Pret9jRkeTFzFZVbV-q-3_hBNT-3yZi3q-NCV3puQ69OHLI-Wi0?></g></svg>
