<svg xmlns="http://www.w3.org/2000/svg" xmlns:xlink="http://www.w3.org/1999/xlink" contentStyleType="text/css" data-diagram-type="SEQUENCE" height="720px" preserveAspectRatio="none" style="width:779px;height:720px;background:#FFFFFF;" version="1.1" viewBox="0 0 779 720" width="779px" zoomAndPan="magnify"><?plantuml 1.2026.3beta6?><defs/><g><g class="title" data-source-line="4"><text fill="#000000" font-family="sans-serif" font-size="14" font-weight="700" lengthAdjust="spacing" textLength="251.3984" x="260.6013" y="27.9951">HTTP Basic Authentication Flow</text></g><rect fill="#90EE90" height="163.6016" style="stroke:#000000;stroke-width:1.5;" width="664.8389" x="10" y="456.1875"/><rect fill="#FFC0CB" height="73.0703" style="stroke:none;stroke-width:1;" width="664.8389" x="10" y="546.7188"/><g class="participant-lifeline" data-entity-uid="part1" data-qualified-name="Client" data-source-line="6" id="part1-lifeline"><g><title>Client</title><rect fill="#000000" fill-opacity="0.00000" height="517.1953" width="8" x="43.5" y="119.5938"/><line style="stroke:#181818;stroke-width:0.5;stroke-dasharray:5,5;" x1="47" x2="47" y1="119.5938" y2="636.7891"/></g></g><g class="participant-lifeline" data-entity-uid="part2" data-qualified-name="Browser" data-source-line="7" id="part2-lifeline"><g><title>Web Browser . HTTP Client</title><rect fill="#000000" fill-opacity="0.00000" height="517.1953" width="8" x="285.3843" y="119.5938"/><line style="stroke:#181818;stroke-width:0.5;stroke-dasharray:5,5;" x1="288.6328" x2="288.6328" y1="119.5938" y2="636.7891"/></g></g><g class="participant-lifeline" data-entity-uid="part3" data-qualified-name="Server" data-source-line="8" id="part3-lifeline"><g><title>Web Server</title><rect fill="#000000" fill-opacity="0.00000" height="517.1953" width="8" x="612.9873" y="119.5938"/><line style="stroke:#181818;stroke-width:0.5;stroke-dasharray:5,5;" x1="616.1357" x2="616.1357" y1="119.5938" y2="636.7891"/></g></g><g class="participant participant-head" data-entity-uid="part1" data-qualified-name="Client" data-source-line="6" id="part1-head"><text fill="#000000" font-family="sans-serif" font-size="14" lengthAdjust="spacing" textLength="40.5303" x="24.2349" y="116.292">Client</text><ellipse cx="47.5" cy="58.7969" fill="#E2E2F0" rx="16" ry="16" style="stroke:#181818;stroke-width:0.5;"/><path d="M47.5,78.7969 C51.5,78.7969 54.5,78.7969 58.5,74.7969 C66.5,74.7969 74.5,82.7969 74.5,90.7969 L74.5,94.7969 C74.5,98.7969 70.5,102.7969 66.5,102.7969 L28.5,102.7969 C24.5,102.7969 20.5,98.7969 20.5,94.7969 L20.5,90.7969 C20.5,82.7969 28.5,74.7969 36.5,74.7969 C40.5,78.7969 43.5,78.7969 47.5,78.7969" fill="#E2E2F0" style="stroke:#181818;stroke-width:0.5;"/></g><g class="participant participant-tail" data-entity-uid="part1" data-qualified-name="Client" data-source-line="6" id="part1-tail"><text fill="#000000" font-family="sans-serif" font-size="14" lengthAdjust="spacing" textLength="40.5303" x="24.2349" y="648.7842">Client</text><ellipse cx="47.5" cy="668.5859" fill="#E2E2F0" rx="16" ry="16" style="stroke:#181818;stroke-width:0.5;"/><path d="M47.5,688.5859 C51.5,688.5859 54.5,688.5859 58.5,684.5859 C66.5,684.5859 74.5,692.5859 74.5,700.5859 L74.5,704.5859 C74.5,708.5859 70.5,712.5859 66.5,712.5859 L28.5,712.5859 C24.5,712.5859 20.5,708.5859 20.5,704.5859 L20.5,700.5859 C20.5,692.5859 28.5,684.5859 36.5,684.5859 C40.5,688.5859 43.5,688.5859 47.5,688.5859" fill="#E2E2F0" style="stroke:#181818;stroke-width:0.5;"/></g><g class="participant participant-head" data-entity-uid="part2" data-qualified-name="Browser" data-source-line="7" id="part2-head"><rect fill="#E2E2F0" height="30.2969" rx="2.5" ry="2.5" style="stroke:#181818;stroke-width:0.5;" width="201.5029" x="188.6328" y="88.2969"/><text fill="#000000" font-family="sans-serif" font-size="14" lengthAdjust="spacing" textLength="187.5029" x="195.6328" y="108.292">Web Browser / HTTP Client</text></g><g class="participant participant-tail" data-entity-uid="part2" data-qualified-name="Browser" data-source-line="7" id="part2-tail"><rect fill="#E2E2F0" height="30.2969" rx="2.5" ry="2.5" style="stroke:#181818;stroke-width:0.5;" width="201.5029" x="188.6328" y="635.7891"/><text fill="#000000" font-family="sans-serif" font-size="14" lengthAdjust="spacing" textLength="187.5029" x="195.6328" y="655.7842">Web Browser / HTTP Client</text></g><g class="participant participant-head" data-entity-uid="part3" data-qualified-name="Server" data-source-line="8" id="part3-head"><rect fill="#E2E2F0" height="30.2969" rx="2.5" ry="2.5" style="stroke:#181818;stroke-width:0.5;" width="95.7031" x="569.1357" y="88.2969"/><text fill="#000000" font-family="sans-serif" font-size="14" lengthAdjust="spacing" textLength="81.7031" x="576.1357" y="108.292">Web Server</text></g><g class="participant participant-tail" data-entity-uid="part3" data-qualified-name="Server" data-source-line="8" id="part3-tail"><rect fill="#E2E2F0" height="30.2969" rx="2.5" ry="2.5" style="stroke:#181818;stroke-width:0.5;" width="95.7031" x="569.1357" y="635.7891"/><text fill="#000000" font-family="sans-serif" font-size="14" lengthAdjust="spacing" textLength="81.7031" x="576.1357" y="655.7842">Web Server</text></g><g class="message" data-entity-1="part1" data-entity-2="part2" data-source-line="10" id="msg1"><polygon fill="#181818" points="277.3843,146.7266,287.3843,150.7266,277.3843,154.7266,281.3843,150.7266" style="stroke:#181818;stroke-width:1;"/><line style="stroke:#181818;stroke-width:1;" x1="47.5" x2="283.3843" y1="150.7266" y2="150.7266"/><text fill="#000000" font-family="sans-serif" font-size="13" font-weight="700" lengthAdjust="spacing" textLength="9.0454" x="54.5" y="145.6606">1</text><text fill="#000000" font-family="sans-serif" font-size="13" lengthAdjust="spacing" textLength="181.5938" x="67.5454" y="145.6606">Request protected resource</text></g><g class="message" data-entity-1="part2" data-entity-2="part3" data-source-line="11" id="msg2"><polygon fill="#181818" points="604.9873,175.8594,614.9873,179.8594,604.9873,183.8594,608.9873,179.8594" style="stroke:#181818;stroke-width:1;"/><line style="stroke:#181818;stroke-width:1;" x1="289.3843" x2="610.9873" y1="179.8594" y2="179.8594"/><text fill="#000000" font-family="sans-serif" font-size="13" font-weight="700" lengthAdjust="spacing" textLength="9.0454" x="296.3843" y="174.7935">2</text><text fill="#000000" font-family="sans-serif" font-size="13" lengthAdjust="spacing" textLength="91.5396" x="309.4297" y="174.7935">GET /resource</text></g><g class="message" data-entity-1="part3" data-entity-2="part2" data-source-line="13" id="msg3"><polygon fill="#181818" points="300.3843,220.125,290.3843,224.125,300.3843,228.125,296.3843,224.125" style="stroke:#181818;stroke-width:1;"/><line style="stroke:#181818;stroke-width:1;" x1="294.3843" x2="615.9873" y1="224.125" y2="224.125"/><text fill="#000000" font-family="sans-serif" font-size="13" font-weight="700" lengthAdjust="spacing" textLength="9.0454" x="306.3843" y="211.4927">3</text><text fill="#000000" font-family="sans-serif" font-size="13" lengthAdjust="spacing" textLength="116.2256" x="319.4297" y="203.9263">401 Unauthorized</text><text fill="#000000" font-family="sans-serif" font-size="13" lengthAdjust="spacing" textLength="290.5576" x="319.4297" y="219.0591">WWW-Authenticate: Basic realm="example"</text></g><g class="message" data-entity-1="part2" data-entity-2="part1" data-source-line="15" id="msg4"><polygon fill="#181818" points="58.5,249.2578,48.5,253.2578,58.5,257.2578,54.5,253.2578" style="stroke:#181818;stroke-width:1;"/><line style="stroke:#181818;stroke-width:1;" x1="52.5" x2="288.3843" y1="253.2578" y2="253.2578"/><text fill="#000000" font-family="sans-serif" font-size="13" font-weight="700" lengthAdjust="spacing" textLength="9.0454" x="64.5" y="248.1919">4</text><text fill="#000000" font-family="sans-serif" font-size="13" lengthAdjust="spacing" textLength="204.8389" x="77.5454" y="248.1919">Prompt for username/password</text></g><g class="message" data-entity-1="part1" data-entity-2="part2" data-source-line="17" id="msg5"><polygon fill="#181818" points="277.3843,278.3906,287.3843,282.3906,277.3843,286.3906,281.3843,282.3906" style="stroke:#181818;stroke-width:1;"/><line style="stroke:#181818;stroke-width:1;" x1="47.5" x2="283.3843" y1="282.3906" y2="282.3906"/><text fill="#000000" font-family="sans-serif" font-size="13" font-weight="700" lengthAdjust="spacing" textLength="9.0454" x="54.5" y="277.3247">5</text><text fill="#000000" font-family="sans-serif" font-size="13" lengthAdjust="spacing" textLength="117.8379" x="67.5454" y="277.3247">Enters credentials</text></g><g class="message" data-entity-1="part2" data-entity-2="part2" data-source-line="19" id="msg6"><line style="stroke:#181818;stroke-width:1;" x1="289.3843" x2="331.3843" y1="326.6563" y2="326.6563"/><line style="stroke:#181818;stroke-width:1;" x1="331.3843" x2="331.3843" y1="326.6563" y2="339.6563"/><line style="stroke:#181818;stroke-width:1;" x1="290.3843" x2="331.3843" y1="339.6563" y2="339.6563"/><polygon fill="#181818" points="300.3843,335.6563,290.3843,339.6563,300.3843,343.6563,296.3843,339.6563" style="stroke:#181818;stroke-width:1;"/><text fill="#000000" font-family="sans-serif" font-size="13" font-weight="700" lengthAdjust="spacing" textLength="9.0454" x="296.3843" y="314.0239">6</text><text fill="#000000" font-family="sans-serif" font-size="13" lengthAdjust="spacing" textLength="123.9761" x="309.4297" y="306.4575">Encode credentials</text><text fill="#000000" font-family="sans-serif" font-size="13" lengthAdjust="spacing" textLength="189.8901" x="309.4297" y="321.5903">Base64(username:password)</text></g><g class="message" data-entity-1="part2" data-entity-2="part3" data-source-line="21" id="msg7"><polygon fill="#181818" points="604.9873,379.9219,614.9873,383.9219,604.9873,387.9219,608.9873,383.9219" style="stroke:#181818;stroke-width:1;"/><line style="stroke:#181818;stroke-width:1;" x1="289.3843" x2="610.9873" y1="383.9219" y2="383.9219"/><text fill="#000000" font-family="sans-serif" font-size="13" font-weight="700" lengthAdjust="spacing" textLength="9.0454" x="296.3843" y="371.2896">7</text><text fill="#000000" font-family="sans-serif" font-size="13" lengthAdjust="spacing" textLength="91.5396" x="309.4297" y="363.7231">GET /resource</text><text fill="#000000" font-family="sans-serif" font-size="13" lengthAdjust="spacing" textLength="203.4487" x="309.4297" y="378.856">Authorization: Basic &lt;base64&gt;</text></g><g class="message" data-entity-1="part3" data-entity-2="part3" data-source-line="23" id="msg8"><line style="stroke:#181818;stroke-width:1;" x1="616.9873" x2="658.9873" y1="428.1875" y2="428.1875"/><line style="stroke:#181818;stroke-width:1;" x1="658.9873" x2="658.9873" y1="428.1875" y2="441.1875"/><line style="stroke:#181818;stroke-width:1;" x1="617.9873" x2="658.9873" y1="441.1875" y2="441.1875"/><polygon fill="#181818" points="627.9873,437.1875,617.9873,441.1875,627.9873,445.1875,623.9873,441.1875" style="stroke:#181818;stroke-width:1;"/><text fill="#000000" font-family="sans-serif" font-size="13" font-weight="700" lengthAdjust="spacing" textLength="9.0454" x="623.9873" y="415.5552">8</text><text fill="#000000" font-family="sans-serif" font-size="13" lengthAdjust="spacing" textLength="101.6895" x="637.0327" y="407.9888">Decode Base64</text><text fill="#000000" font-family="sans-serif" font-size="13" lengthAdjust="spacing" textLength="129.5684" x="637.0327" y="423.1216">Validate credentials</text></g><path d="M10,456.1875 L74.4429,456.1875 L74.4429,463.3203 L64.4429,473.3203 L10,473.3203 L10,456.1875" fill="#FFD700" style="stroke:#000000;stroke-width:1.5;"/><rect fill="none" height="163.6016" style="stroke:#000000;stroke-width:1.5;" width="664.8389" x="10" y="456.1875"/><text fill="#000000" font-family="sans-serif" font-size="13" font-weight="700" lengthAdjust="spacing" textLength="19.4429" x="25" y="469.2544">alt</text><text fill="#000000" font-family="sans-serif" font-size="11" font-weight="700" lengthAdjust="spacing" textLength="114.5762" x="89.4429" y="468.3979">[Valid credentials]</text><g class="message" data-entity-1="part3" data-entity-2="part2" data-source-line="26" id="msg9"><polygon fill="#181818" points="300.3843,505.5859,290.3843,509.5859,300.3843,513.5859,296.3843,509.5859" style="stroke:#181818;stroke-width:1;"/><line style="stroke:#181818;stroke-width:1;" x1="294.3843" x2="615.9873" y1="509.5859" y2="509.5859"/><text fill="#000000" font-family="sans-serif" font-size="13" font-weight="700" lengthAdjust="spacing" textLength="9.0454" x="306.3843" y="496.9536">9</text><text fill="#000000" font-family="sans-serif" font-size="13" lengthAdjust="spacing" textLength="47.7026" x="319.4297" y="489.3872">200 OK</text><text fill="#000000" font-family="sans-serif" font-size="13" lengthAdjust="spacing" textLength="127.3467" x="319.4297" y="504.52">Protected Resource</text></g><g class="message" data-entity-1="part2" data-entity-2="part1" data-source-line="27" id="msg10"><polygon fill="#181818" points="58.5,534.7188,48.5,538.7188,58.5,542.7188,54.5,538.7188" style="stroke:#181818;stroke-width:1;"/><line style="stroke:#181818;stroke-width:1;" x1="52.5" x2="288.3843" y1="538.7188" y2="538.7188"/><text fill="#000000" font-family="sans-serif" font-size="13" font-weight="700" lengthAdjust="spacing" textLength="18.0908" x="64.5" y="533.6528">10</text><text fill="#000000" font-family="sans-serif" font-size="13" lengthAdjust="spacing" textLength="101.8228" x="86.5908" y="533.6528">Display content</text></g><line style="stroke:#000000;stroke-width:1;stroke-dasharray:2,2;" x1="10" x2="674.8389" y1="547.7188" y2="547.7188"/><text fill="#000000" font-family="sans-serif" font-size="11" font-weight="700" lengthAdjust="spacing" textLength="125.1572" x="15" y="557.9292">[Invalid credentials]</text><g class="message" data-entity-1="part3" data-entity-2="part2" data-source-line="29" id="msg11"><polygon fill="#181818" points="300.3843,578.6563,290.3843,582.6563,300.3843,586.6563,296.3843,582.6563" style="stroke:#181818;stroke-width:1;"/><line style="stroke:#181818;stroke-width:1;" x1="294.3843" x2="615.9873" y1="582.6563" y2="582.6563"/><text fill="#000000" font-family="sans-serif" font-size="13" font-weight="700" lengthAdjust="spacing" textLength="18.0908" x="306.3843" y="577.5903">11</text><text fill="#000000" font-family="sans-serif" font-size="13" lengthAdjust="spacing" textLength="116.2256" x="328.4751" y="577.5903">401 Unauthorized</text></g><g class="message" data-entity-1="part2" data-entity-2="part1" data-source-line="30" id="msg12"><polygon fill="#181818" points="58.5,607.7891,48.5,611.7891,58.5,615.7891,54.5,611.7891" style="stroke:#181818;stroke-width:1;"/><line style="stroke:#181818;stroke-width:1;" x1="52.5" x2="288.3843" y1="611.7891" y2="611.7891"/><text fill="#000000" font-family="sans-serif" font-size="13" font-weight="700" lengthAdjust="spacing" textLength="18.0908" x="64.5" y="606.7231">12</text><text fill="#000000" font-family="sans-serif" font-size="13" lengthAdjust="spacing" textLength="167.0132" x="86.5908" y="606.7231">Show error / retry prompt</text></g><?plantuml-src ZLB1Jjj04BtlLuoI2psW18HwY0eIa91MhTI8fCt5buaza1NhMNTsZ9j-VJTs73aG13wj_DwyD_DcmfFb0WLpm5Izp7NZ2B2Yu7CoMAhdCb-H6ADM8_9riPZ13GQRmdMfQsArAQhr37VELyRK8d3hR4HCr8smBP0LUajQmOtuAf30eD5fQ3t0q2AlI-OapoGrftaQqvJ1wTLURmJtzAUae528LqgLCf0uGYafcPOK-Or2f4yd2nZi6MRt_q3nOdW6lpWciFPY_r6My7AvFEqCJQDT44BeyiiU_SMySDGpNSTThoEOYSyBXOUOJXannfm61OPGUScEZpHX9GcG2cLRHtJXGBbBJ7r6NMB2iJFwV77IMerQgq_c_JmIljvDNM-s7VFBgjQywiQr5nXJtKDZc_1lT3QB4HrsZqxxK-yowF-mZskT2X53JJtWGVoERUHyE8IVtnEUxNTytsvmMt8izR4DXSCDf3w66I-IN23epom_mJT-_h3porjuqs--zXMGYD_Uk93APdkHSV66EFiF?></g></svg>
